grf
version=1
nRows=19
nColumns=37
inDegrees=no
endheader
time	ground_force_1_vx	ground_force_1_vy	ground_force_1_vz	ground_force_1_px	ground_force_1_py	ground_force_1_pz	ground_moment_1_mx	ground_moment_1_my	ground_moment_1_mz	ground_force_2_vx	ground_force_2_vy	ground_force_2_vz	ground_force_2_px	ground_force_2_py	ground_force_2_pz	ground_moment_2_mx	ground_moment_2_my	ground_moment_2_mz	ground_force_3_vx	ground_force_3_vy	ground_force_3_vz	ground_force_3_px	ground_force_3_py	ground_force_3_pz	ground_moment_3_mx	ground_moment_3_my	ground_moment_3_mz	ground_force_4_vx	ground_force_4_vy	ground_force_4_vz	ground_force_4_px	ground_force_4_py	ground_force_4_pz	ground_moment_4_mx	ground_moment_4_my	ground_moment_4_mz
      0.00000000	      0.00000000	     -0.00000000	      0.00000000	      0.00000000	      0.00000000	      0.00000000	      0.00000000	      0.00000000	      0.00000000	     -1.90407968	     17.78350639	   -218.26519775	   -296.02685695	  -1084.95688492	      0.00000000	      0.00000000	      0.00000000	   2407.69206845	     -6.91582942	    -68.18794190	   -390.71490479	   -309.50909656	   -744.57442102	      0.00000000	      0.00000000	     -0.00000000	  -5974.66218607	      0.00000000	     -0.00000000	      0.00000000	      0.00000000	      0.00000000	      0.00000000	      0.00000000	      0.00000000	      0.00000000
      0.01000000	      0.00000000	     -0.00000000	      0.00000000	      0.00000000	      0.00000000	      0.00000000	      0.00000000	      0.00000000	      0.00000000	     -3.07145309	     19.03564453	   -219.32473755	   -294.52390671	  -1084.04968127	      0.00000000	      0.00000000	      0.00000000	   2325.34683569	     -6.25987361	    -67.92702429	   -389.45596313	   -310.72038015	   -744.30158554	      0.00000000	      0.00000000	     -0.00000000	  -5895.42451410	      0.00000000	     -0.00000000	      0.00000000	      0.00000000	      0.00000000	      0.00000000	      0.00000000	      0.00000000	      0.00000000
      0.02000000	      0.00000000	     -0.00000000	      0.00000000	      0.00000000	      0.00000000	      0.00000000	      0.00000000	      0.00000000	      0.00000000	     -4.76161003	     19.59977531	   -223.37747192	   -292.80604205	  -1085.20270005	      0.00000000	      0.00000000	      0.00000000	   2478.44384545	     -4.61296673	    -67.66255911	   -387.52609253	   -312.47785740	   -744.33261937	      0.00000000	     -0.00000000	     -0.00000000	  -6106.56892151	      0.00000000	     -0.00000000	      0.00000000	      0.00000000	      0.00000000	      0.00000000	      0.00000000	      0.00000000	      0.00000000
      0.03000000	      0.00000000	     -0.00000000	      0.00000000	      0.00000000	      0.00000000	      0.00000000	      0.00000000	      0.00000000	      0.00000000	     -6.07561874	     20.84721756	   -229.93855286	   -292.28585465	  -1087.10400462	      0.00000000	      0.00000000	      0.00000000	   2362.01511666	     -3.24865222	    -68.14657564	   -384.78195190	   -313.83387779	   -744.26503497	      0.00000000	      0.00000000	     -0.00000000	  -5745.66214918	      0.00000000	     -0.00000000	      0.00000000	      0.00000000	      0.00000000	      0.00000000	      0.00000000	      0.00000000	      0.00000000
      0.04000000	      0.00000000	     -0.00000000	      0.00000000	      0.00000000	      0.00000000	      0.00000000	      0.00000000	      0.00000000	      0.00000000	     -6.50262451	     22.39926147	   -239.77059937	   -292.32495966	  -1087.26449740	      0.00000000	      0.00000000	      0.00000000	   2593.10596134	     -2.21777554	    -67.70529155	   -378.09579468	   -314.99438127	   -745.48432934	      0.00000000	      0.00000000	     -0.00000000	  -5438.63103686	      0.00000000	     -0.00000000	      0.00000000	      0.00000000	      0.00000000	      0.00000000	      0.00000000	      0.00000000	      0.00000000
      0.05000000	      0.00000000	     -0.00000000	      0.00000000	      0.00000000	      0.00000000	      0.00000000	      0.00000000	      0.00000000	      0.00000000	     -6.62196302	     24.33769226	   -253.85566711	   -292.72086140	  -1085.60971389	      0.00000000	      0.00000000	      0.00000000	   2579.65762978	     -0.56954132	    -66.68287654	   -370.81762695	   -316.62499216	   -745.32694511	      0.00000000	     -0.00000000	     -0.00000000	  -5304.31546286	      0.00000000	     -0.00000000	      0.00000000	      0.00000000	      0.00000000	      0.00000000	      0.00000000	      0.00000000	      0.00000000
      0.06000000	      0.00000000	     -0.00000000	      0.00000000	      0.00000000	      0.00000000	      0.00000000	      0.00000000	      0.00000000	      0.00000000	     -4.44982338	     27.24270439	   -271.22103882	   -294.61968404	  -1084.93498527	      0.00000000	      0.00000000	      0.00000000	   2690.36881792	      0.80834423	    -65.62301643	   -362.87457275	   -318.53037045	   -744.51916189	      0.00000000	     -0.00000000	     -0.00000000	  -5059.53380849	      0.00000000	     -0.00000000	      0.00000000	      0.00000000	      0.00000000	      0.00000000	      0.00000000	      0.00000000	      0.00000000
      0.07000000	      0.00000000	     -0.00000000	      0.00000000	      0.00000000	      0.00000000	      0.00000000	      0.00000000	      0.00000000	      0.00000000	     -2.81846499	     30.01474190	   -292.95178223	   -296.72382213	  -1088.07954586	      0.00000000	      0.00000000	      0.00000000	   2722.15404588	      2.34824035	    -62.97851964	   -350.75338745	   -319.27775262	   -743.71546621	      0.00000000	     -0.00000000	     -0.00000000	  -4563.42114670	      0.00000000	     -0.00000000	      0.00000000	      0.00000000	      0.00000000	      0.00000000	      0.00000000	      0.00000000	      0.00000000
      0.08000000	      0.00000000	     -0.00000000	      0.00000000	      0.00000000	      0.00000000	      0.00000000	      0.00000000	      0.00000000	      0.00000000	     -1.54536915	     32.08119202	   -310.42236328	   -298.34086171	  -1085.48290116	      0.00000000	      0.00000000	      0.00000000	   2678.08911651	      2.88578589	    -59.18088938	   -327.41949463	   -320.40125077	   -744.44632878	      0.00000000	      0.00000000	     -0.00000000	  -3970.35069179	      0.00000000	     -0.00000000	      0.00000000	      0.00000000	      0.00000000	      0.00000000	      0.00000000	      0.00000000	      0.00000000
      0.09000000	      0.00000000	     -0.00000000	      0.00000000	      0.00000000	      0.00000000	      0.00000000	      0.00000000	      0.00000000	      0.00000000	     -0.36880380	     34.40433502	   -334.06085205	   -301.20201387	  -1087.02601305	      0.00000000	      0.00000000	      0.00000000	   2636.96032771	      3.85611299	    -54.14677081	   -302.82470703	   -320.16062119	   -742.38986255	      0.00000000	     -0.00000000	     -0.00000000	  -3641.98379774	      0.00000000	     -0.00000000	      0.00000000	      0.00000000	      0.00000000	      0.00000000	      0.00000000	      0.00000000	      0.00000000
      0.10000000	      0.00000000	     -0.00000000	      0.00000000	      0.00000000	      0.00000000	      0.00000000	      0.00000000	      0.00000000	      0.00000000	      0.05391195	     37.50530243	   -358.42852783	   -301.85971512	  -1084.61926936	      0.00000000	      0.00000000	      0.00000000	   2668.13323281	      4.57151366	    -48.99467508	   -270.77856445	   -319.96649055	   -742.53708884	      0.00000000	      0.00000000	     -0.00000000	  -3262.12136354	      0.00000000	     -0.00000000	      0.00000000	      0.00000000	      0.00000000	      0.00000000	      0.00000000	      0.00000000	      0.00000000
      0.11000000	      0.00000000	     -0.00000000	      0.00000000	      0.00000000	      0.00000000	      0.00000000	      0.00000000	      0.00000000	      0.00000000	      0.77440155	     41.07624054	   -388.20654297	   -303.60856654	  -1084.89117373	      0.00000000	      0.00000000	      0.00000000	   2668.33317172	      4.79037869	    -42.28909725	   -236.77252197	   -318.43037498	   -743.36910055	      0.00000000	      0.00000000	     -0.00000000	  -2767.49470628	      0.00000000	     -0.00000000	      0.00000000	      0.00000000	      0.00000000	      0.00000000	      0.00000000	      0.00000000	      0.00000000
      0.12000000	      0.00000000	     -0.00000000	      0.00000000	      0.00000000	      0.00000000	      0.00000000	      0.00000000	      0.00000000	      0.00000000	      2.67631531	     45.28488922	   -417.59579468	   -304.45059073	  -1085.07591105	      0.00000000	     -0.00000000	      0.00000000	   2321.54346430	      4.48302432	    -35.95316354	   -204.65216064	   -316.46251819	   -740.66793055	      0.00000000	      0.00000000	     -0.00000000	  -2238.88853954	      0.00000000	     -0.00000000	      0.00000000	      0.00000000	      0.00000000	      0.00000000	      0.00000000	      0.00000000	      0.00000000
      0.13000000	      0.00000000	     -0.00000000	      0.00000000	      0.00000000	      0.00000000	      0.00000000	      0.00000000	      0.00000000	      0.00000000	      3.79488206	     50.31068039	   -449.46203613	   -305.26152222	  -1085.53081524	      0.00000000	     -0.00000000	      0.00000000	   2340.02258273	      4.02660688	    -29.09876668	   -171.10981750	   -314.13313886	   -741.33793587	      0.00000000	     -0.00000000	     -0.00000000	  -1931.10875085	      0.00000000	     -0.00000000	      0.00000000	      0.00000000	      0.00000000	      0.00000000	      0.00000000	      0.00000000	      0.00000000
      0.14000000	      0.00000000	     -0.00000000	      0.00000000	      0.00000000	      0.00000000	      0.00000000	      0.00000000	      0.00000000	      0.00000000	      4.33739805	     54.03979111	   -478.17745972	   -305.56973867	  -1084.88181278	      0.00000000	     -0.00000000	      0.00000000	   2309.82669523	      2.81123983	    -23.28283144	   -139.57893372	   -310.10931193	   -738.66017034	      0.00000000	      0.00000000	     -0.00000000	  -1628.10264076	      0.00000000	     -0.00000000	      0.00000000	      0.00000000	      0.00000000	      0.00000000	      0.00000000	      0.00000000	      0.00000000
      0.15000000	      0.00000000	     -0.00000000	      0.00000000	      0.00000000	      0.00000000	      0.00000000	      0.00000000	      0.00000000	      0.00000000	      4.44589043	     58.07942581	   -509.00747681	   -305.32093271	  -1085.55065145	      0.00000000	      0.00000000	      0.00000000	   2093.26141286	      1.67857169	    -17.81407371	   -109.84910583	   -304.97037200	   -737.47222036	      0.00000000	      0.00000000	     -0.00000000	  -1176.73441379	      0.00000000	     -0.00000000	      0.00000000	      0.00000000	      0.00000000	      0.00000000	      0.00000000	      0.00000000	      0.00000000
      0.16000000	      0.00000000	     -0.00000000	      0.00000000	      0.00000000	      0.00000000	      0.00000000	      0.00000000	      0.00000000	      0.00000000	      3.44590974	     61.23258972	   -538.14422607	   -305.86320742	  -1085.95496892	      0.00000000	      0.00000000	      0.00000000	   1852.52422205	      0.99011702	    -12.86860093	    -85.38163757	   -296.89609748	   -734.30478632	      0.00000000	      0.00000000	     -0.00000000	   -737.15945554	      0.00000000	     -0.00000000	      0.00000000	      0.00000000	      0.00000000	      0.00000000	      0.00000000	      0.00000000	      0.00000000
      0.17000000	      0.00000000	     -0.00000000	      0.00000000	      0.00000000	      0.00000000	      0.00000000	      0.00000000	      0.00000000	      0.00000000	      4.26658630	     64.10026550	   -563.99768066	   -306.44979286	  -1086.06526135	      0.00000000	      0.00000000	      0.00000000	   1910.75528749	      0.89447789	     -8.97565849	    -64.70909119	   -291.90318389	   -732.35113888	      0.00000000	      0.00000000	     -0.00000000	   -692.02035217	      0.00000000	     -0.00000000	      0.00000000	      0.00000000	      0.00000000	      0.00000000	      0.00000000	      0.00000000	      0.00000000
      0.18000000	      0.00000000	     -0.00000000	      0.00000000	      0.00000000	      0.00000000	      0.00000000	      0.00000000	      0.00000000	      0.00000000	      4.46854162	     66.28847504	   -586.79260254	   -306.53018543	  -1085.87177484	      0.00000000	      0.00000000	      0.00000000	   1744.77444642	      1.20140822	     -5.96551047	    -46.75630188	   -288.47888441	   -732.44949796	      0.00000000	      0.00000000	     -0.00000000	   -665.35781352	      0.00000000	     -0.00000000	      0.00000000	      0.00000000	      0.00000000	      0.00000000	      0.00000000	      0.00000000	      0.00000000
